<svg xmlns="http://www.w3.org/2000/svg" viewBox="20 -120 960 320"><defs ><marker id="arrow-0" viewBox="0 0 10 10" refX="2" refY="5" markerUnits="strokeWidth" markerWidth="4" markerHeight="4" orient="auto-start-reverse"><path d="M 0 0 L 10 5 L 0 10 z" fill="#7e7e7e"/></marker></defs><defs ><marker id="arrow-1" viewBox="0 0 10 10" refX="2" refY="5" markerUnits="strokeWidth" markerWidth="4" markerHeight="4" orient="auto-start-reverse"><path d="M 0 0 L 10 5 L 0 10 z" fill="#fb464c"/></marker></defs><defs ><marker id="arrow-2" viewBox="0 0 10 10" refX="2" refY="5" markerUnits="strokeWidth" markerWidth="4" markerHeight="4" orient="auto-start-reverse"><path d="M 0 0 L 10 5 L 0 10 z" fill="#e9973f"/></marker></defs><defs ><marker id="arrow-3" viewBox="0 0 10 10" refX="2" refY="5" markerUnits="strokeWidth" markerWidth="4" markerHeight="4" orient="auto-start-reverse"><path d="M 0 0 L 10 5 L 0 10 z" fill="#e0de71"/></marker></defs><defs ><marker id="arrow-4" viewBox="0 0 10 10" refX="2" refY="5" markerUnits="strokeWidth" markerWidth="4" markerHeight="4" orient="auto-start-reverse"><path d="M 0 0 L 10 5 L 0 10 z" fill="#44cf6e"/></marker></defs><defs ><marker id="arrow-5" viewBox="0 0 10 10" refX="2" refY="5" markerUnits="strokeWidth" markerWidth="4" markerHeight="4" orient="auto-start-reverse"><path d="M 0 0 L 10 5 L 0 10 z" fill="#53dfdd"/></marker></defs><defs ><marker id="arrow-6" viewBox="0 0 10 10" refX="2" refY="5" markerUnits="strokeWidth" markerWidth="4" markerHeight="4" orient="auto-start-reverse"><path d="M 0 0 L 10 5 L 0 10 z" fill="#a882ff"/></marker></defs><path stroke="#7e7e7e" stroke-width="4" d="M 780 -90.0 c 100 0 -18 0.0 67 0.0" marker-end="url(#arrow-0)" fill="transparent"/><path stroke="#7e7e7e" stroke-width="4" d="M 429 44.0 c 100 0 -9 -134.0 76 -134.0" marker-end="url(#arrow-0)" fill="transparent"/><path stroke="#7e7e7e" stroke-width="4" d="M 780 44.0 c 100 0 -18 0.0 67 0.0" marker-end="url(#arrow-0)" fill="transparent"/><path stroke="#7e7e7e" stroke-width="4" d="M 429 44.0 c 100 0 -9 0.0 76 0.0" marker-end="url(#arrow-0)" fill="transparent"/><path stroke="#7e7e7e" stroke-width="4" d="M 780 170.0 c 100 0 -18 0.0 67 0.0" marker-end="url(#arrow-0)" fill="transparent"/><path stroke="#7e7e7e" stroke-width="4" d="M 429 44.0 c 100 0 -9 126.0 76 126.0" marker-end="url(#arrow-0)" fill="transparent"/><path stroke="#7e7e7e" stroke-width="4" d="M 156 44.0 c 100 0 4 0.0 89 0.0" marker-end="url(#arrow-0)" fill="transparent"/><rect stroke="#fb464c" stroke-width="4" x="520" y="-120" width="260" height="60" rx="8" ry="8" fill="#1e1e1e"/><text font-family="Verdana" font-size="17" fill="white" x="540" y="-90">splunk_backend</text><rect stroke="#44cf6e" stroke-width="4" x="862" y="-115" width="118" height="50" rx="8" ry="8" fill="#1e1e1e"/><text font-family="Verdana" font-size="17" fill="white" x="882" y="-85">rule1</text><rect stroke="#fb464c" stroke-width="4" x="520" y="14" width="260" height="60" rx="8" ry="8" fill="#1e1e1e"/><text font-family="Verdana" font-size="17" fill="white" x="540" y="44">ms365defender_backend</text><rect stroke="#44cf6e" stroke-width="4" x="862" y="19" width="118" height="50" rx="8" ry="8" fill="#1e1e1e"/><text font-family="Verdana" font-size="17" fill="white" x="882" y="49">rule1</text><rect stroke="#fb464c" stroke-width="4" x="520" y="140" width="260" height="60" rx="8" ry="8" fill="#1e1e1e"/><text font-family="Verdana" font-size="17" fill="white" x="540" y="170">elasticsearch_backend</text><rect stroke="#44cf6e" stroke-width="4" x="862" y="145" width="118" height="50" rx="8" ry="8" fill="#1e1e1e"/><text font-family="Verdana" font-size="17" fill="white" x="882" y="175">rule1</text><rect stroke="#e9973f" stroke-width="4" x="260" y="14" width="169" height="60" rx="8" ry="8" fill="#1e1e1e"/><text font-family="Verdana" font-size="17" fill="white" x="280" y="44">pipeline1.yml</text><rect stroke="#53dfdd" stroke-width="4" x="20" y="19" width="136" height="50" rx="8" ry="8" fill="#1e1e1e"/><text font-family="Verdana" font-size="17" fill="white" x="40" y="49">   rule1.yml</text></svg>