<svg xmlns="http://www.w3.org/2000/svg" viewBox="11 -380 956 840"><defs ><marker id="arrow-0" viewBox="0 0 10 10" refX="2" refY="5" markerUnits="strokeWidth" markerWidth="4" markerHeight="4" orient="auto-start-reverse"><path d="M 0 0 L 10 5 L 0 10 z" fill="#7e7e7e"/></marker></defs><defs ><marker id="arrow-1" viewBox="0 0 10 10" refX="2" refY="5" markerUnits="strokeWidth" markerWidth="4" markerHeight="4" orient="auto-start-reverse"><path d="M 0 0 L 10 5 L 0 10 z" fill="#fb464c"/></marker></defs><defs ><marker id="arrow-2" viewBox="0 0 10 10" refX="2" refY="5" markerUnits="strokeWidth" markerWidth="4" markerHeight="4" orient="auto-start-reverse"><path d="M 0 0 L 10 5 L 0 10 z" fill="#e9973f"/></marker></defs><defs ><marker id="arrow-3" viewBox="0 0 10 10" refX="2" refY="5" markerUnits="strokeWidth" markerWidth="4" markerHeight="4" orient="auto-start-reverse"><path d="M 0 0 L 10 5 L 0 10 z" fill="#e0de71"/></marker></defs><defs ><marker id="arrow-4" viewBox="0 0 10 10" refX="2" refY="5" markerUnits="strokeWidth" markerWidth="4" markerHeight="4" orient="auto-start-reverse"><path d="M 0 0 L 10 5 L 0 10 z" fill="#44cf6e"/></marker></defs><defs ><marker id="arrow-5" viewBox="0 0 10 10" refX="2" refY="5" markerUnits="strokeWidth" markerWidth="4" markerHeight="4" orient="auto-start-reverse"><path d="M 0 0 L 10 5 L 0 10 z" fill="#53dfdd"/></marker></defs><defs ><marker id="arrow-6" viewBox="0 0 10 10" refX="2" refY="5" markerUnits="strokeWidth" markerWidth="4" markerHeight="4" orient="auto-start-reverse"><path d="M 0 0 L 10 5 L 0 10 z" fill="#a882ff"/></marker></defs><path stroke="#7e7e7e" stroke-width="4" d="M 420 33.0 c 100 0 -9 -288.0 76 -288.0" marker-end="url(#arrow-0)" fill="transparent"/><path stroke="#7e7e7e" stroke-width="4" d="M 420 33.0 c 100 0 -9 1.0 76 1.0" marker-end="url(#arrow-0)" fill="transparent"/><path stroke="#7e7e7e" stroke-width="4" d="M 771 335.0 c 100 0 -11 -100.0 74 -100.0" marker-end="url(#arrow-0)" fill="transparent"/><path stroke="#7e7e7e" stroke-width="4" d="M 771 335.0 c 100 0 -11 -75.0 74 -75.0" marker-end="url(#arrow-0)" fill="transparent"/><path stroke="#7e7e7e" stroke-width="4" d="M 771 335.0 c 100 0 -11 -50.0 74 -50.0" marker-end="url(#arrow-0)" fill="transparent"/><path stroke="#7e7e7e" stroke-width="4" d="M 771 335.0 c 100 0 -11 -25.0 74 -25.0" marker-end="url(#arrow-0)" fill="transparent"/><path stroke="#7e7e7e" stroke-width="4" d="M 771 335.0 c 100 0 -11 -25.0 74 -25.0" marker-end="url(#arrow-0)" fill="transparent"/><path stroke="#7e7e7e" stroke-width="4" d="M 771 335.0 c 100 0 -11 0.0 74 0.0" marker-end="url(#arrow-0)" fill="transparent"/><path stroke="#7e7e7e" stroke-width="4" d="M 771 335.0 c 100 0 -11 25.0 74 25.0" marker-end="url(#arrow-0)" fill="transparent"/><path stroke="#7e7e7e" stroke-width="4" d="M 771 335.0 c 100 0 -11 50.0 74 50.0" marker-end="url(#arrow-0)" fill="transparent"/><path stroke="#7e7e7e" stroke-width="4" d="M 771 335.0 c 100 0 -11 75.0 74 75.0" marker-end="url(#arrow-0)" fill="transparent"/><path stroke="#7e7e7e" stroke-width="4" d="M 771 335.0 c 100 0 -11 100.0 74 100.0" marker-end="url(#arrow-0)" fill="transparent"/><path stroke="#7e7e7e" stroke-width="4" d="M 420 33.0 c 100 0 -9 302.0 76 302.0" marker-end="url(#arrow-0)" fill="transparent"/><path stroke="#7e7e7e" stroke-width="4" d="M 147 83.0 c 100 0 4 -50.0 89 -50.0" marker-end="url(#arrow-0)" fill="transparent"/><path stroke="#7e7e7e" stroke-width="4" d="M 147 133.0 c 100 0 4 -100.0 89 -100.0" marker-end="url(#arrow-0)" fill="transparent"/><path stroke="#7e7e7e" stroke-width="4" d="M 147 183.0 c 100 0 4 -150.0 89 -150.0" marker-end="url(#arrow-0)" fill="transparent"/><path stroke="#7e7e7e" stroke-width="4" d="M 147 233.0 c 100 0 4 -200.0 89 -200.0" marker-end="url(#arrow-0)" fill="transparent"/><path stroke="#7e7e7e" stroke-width="4" d="M 147 -67.0 c 100 0 4 100.0 89 100.0" marker-end="url(#arrow-0)" fill="transparent"/><path stroke="#7e7e7e" stroke-width="4" d="M 147 -17.0 c 100 0 4 50.0 89 50.0" marker-end="url(#arrow-0)" fill="transparent"/><path stroke="#7e7e7e" stroke-width="4" d="M 147 -167.0 c 100 0 4 200.0 89 200.0" marker-end="url(#arrow-0)" fill="transparent"/><path stroke="#7e7e7e" stroke-width="4" d="M 147 -117.0 c 100 0 4 150.0 89 150.0" marker-end="url(#arrow-0)" fill="transparent"/><path stroke="#7e7e7e" stroke-width="4" d="M 147 33.0 c 100 0 4 0.0 89 0.0" marker-end="url(#arrow-0)" fill="transparent"/><path stroke="#7e7e7e" stroke-width="4" d="M 771 -255.0 c 100 0 -11 -100.0 74 -100.0" marker-end="url(#arrow-0)" fill="transparent"/><path stroke="#7e7e7e" stroke-width="4" d="M 771 -255.0 c 100 0 -11 -75.0 74 -75.0" marker-end="url(#arrow-0)" fill="transparent"/><path stroke="#7e7e7e" stroke-width="4" d="M 771 -255.0 c 100 0 -11 -50.0 74 -50.0" marker-end="url(#arrow-0)" fill="transparent"/><path stroke="#7e7e7e" stroke-width="4" d="M 771 -255.0 c 100 0 -11 -25.0 74 -25.0" marker-end="url(#arrow-0)" fill="transparent"/><path stroke="#7e7e7e" stroke-width="4" d="M 771 -255.0 c 100 0 -11 0.0 74 0.0" marker-end="url(#arrow-0)" fill="transparent"/><path stroke="#7e7e7e" stroke-width="4" d="M 771 -255.0 c 100 0 -11 25.0 74 25.0" marker-end="url(#arrow-0)" fill="transparent"/><path stroke="#7e7e7e" stroke-width="4" d="M 771 -255.0 c 100 0 -11 50.0 74 50.0" marker-end="url(#arrow-0)" fill="transparent"/><path stroke="#7e7e7e" stroke-width="4" d="M 771 -255.0 c 100 0 -11 75.0 74 75.0" marker-end="url(#arrow-0)" fill="transparent"/><path stroke="#7e7e7e" stroke-width="4" d="M 771 -255.0 c 100 0 -11 100.0 74 100.0" marker-end="url(#arrow-0)" fill="transparent"/><path stroke="#7e7e7e" stroke-width="4" d="M 771 34.0 c 100 0 -11 -100.0 74 -100.0" marker-end="url(#arrow-0)" fill="transparent"/><path stroke="#7e7e7e" stroke-width="4" d="M 771 34.0 c 100 0 -11 -50.0 74 -50.0" marker-end="url(#arrow-0)" fill="transparent"/><path stroke="#7e7e7e" stroke-width="4" d="M 771 34.0 c 100 0 -11 -75.0 74 -75.0" marker-end="url(#arrow-0)" fill="transparent"/><path stroke="#7e7e7e" stroke-width="4" d="M 771 34.0 c 100 0 -11 -25.0 74 -25.0" marker-end="url(#arrow-0)" fill="transparent"/><path stroke="#7e7e7e" stroke-width="4" d="M 771 34.0 c 100 0 -11 -25.0 74 -25.0" marker-end="url(#arrow-0)" fill="transparent"/><path stroke="#7e7e7e" stroke-width="4" d="M 771 34.0 c 100 0 -11 0.0 74 0.0" marker-end="url(#arrow-0)" fill="transparent"/><path stroke="#7e7e7e" stroke-width="4" d="M 771 34.0 c 100 0 -11 25.0 74 25.0" marker-end="url(#arrow-0)" fill="transparent"/><path stroke="#7e7e7e" stroke-width="4" d="M 771 34.0 c 100 0 -11 50.0 74 50.0" marker-end="url(#arrow-0)" fill="transparent"/><path stroke="#7e7e7e" stroke-width="4" d="M 771 34.0 c 100 0 -11 75.0 74 75.0" marker-end="url(#arrow-0)" fill="transparent"/><path stroke="#7e7e7e" stroke-width="4" d="M 771 34.0 c 100 0 -11 100.0 74 100.0" marker-end="url(#arrow-0)" fill="transparent"/><rect stroke="#fb464c" stroke-width="4" x="511" y="-285" width="260" height="60" rx="8" ry="8" fill="#1e1e1e"/><text font-family="Verdana" font-size="17" fill="white" x="531" y="-255">splunk_backend</text><rect stroke="#fb464c" stroke-width="4" x="511" y="4" width="260" height="60" rx="8" ry="8" fill="#1e1e1e"/><text font-family="Verdana" font-size="17" fill="white" x="531" y="34">ms365defender_backend</text><rect stroke="#fb464c" stroke-width="4" x="511" y="305" width="260" height="60" rx="8" ry="8" fill="#1e1e1e"/><text font-family="Verdana" font-size="17" fill="white" x="531" y="335">elasticsearch_backend</text><rect stroke="#53dfdd" stroke-width="4" x="11" y="58" width="136" height="50" rx="8" ry="8" fill="#1e1e1e"/><text font-family="Verdana" font-size="17" fill="white" x="31" y="88">   rule6.yml</text><rect stroke="#53dfdd" stroke-width="4" x="11" y="108" width="136" height="50" rx="8" ry="8" fill="#1e1e1e"/><text font-family="Verdana" font-size="17" fill="white" x="31" y="138">   rule7.yml</text><rect stroke="#53dfdd" stroke-width="4" x="11" y="158" width="136" height="50" rx="8" ry="8" fill="#1e1e1e"/><text font-family="Verdana" font-size="17" fill="white" x="31" y="188">   rule8.yml</text><rect stroke="#53dfdd" stroke-width="4" x="11" y="208" width="136" height="50" rx="8" ry="8" fill="#1e1e1e"/><text font-family="Verdana" font-size="17" fill="white" x="31" y="238">   rule9.yml</text><rect stroke="#53dfdd" stroke-width="4" x="11" y="-92" width="136" height="50" rx="8" ry="8" fill="#1e1e1e"/><text font-family="Verdana" font-size="17" fill="white" x="31" y="-62">   rule3.yml</text><rect stroke="#53dfdd" stroke-width="4" x="11" y="-42" width="136" height="50" rx="8" ry="8" fill="#1e1e1e"/><text font-family="Verdana" font-size="17" fill="white" x="31" y="-12">   rule4.yml</text><rect stroke="#e9973f" stroke-width="4" x="251" y="3" width="169" height="60" rx="8" ry="8" fill="#1e1e1e"/><text font-family="Verdana" font-size="17" fill="white" x="271" y="33">pipeline.yml</text><rect stroke="#53dfdd" stroke-width="4" x="11" y="8" width="136" height="50" rx="8" ry="8" fill="#1e1e1e"/><text font-family="Verdana" font-size="17" fill="white" x="31" y="38">   rule5.yml</text><rect stroke="#53dfdd" stroke-width="4" x="11" y="-142" width="136" height="50" rx="8" ry="8" fill="#1e1e1e"/><text font-family="Verdana" font-size="17" fill="white" x="31" y="-112">   rule2.yml</text><rect stroke="#53dfdd" stroke-width="4" x="11" y="-192" width="136" height="50" rx="8" ry="8" fill="#1e1e1e"/><text font-family="Verdana" font-size="17" fill="white" x="31" y="-162">   rule1.yml</text><rect stroke="#44cf6e" stroke-width="4" x="860" y="410" width="107" height="50" rx="8" ry="8" fill="#1e1e1e"/><text font-family="Verdana" font-size="17" fill="white" x="880" y="440">   rule9</text><rect stroke="#44cf6e" stroke-width="4" x="860" y="385" width="107" height="50" rx="8" ry="8" fill="#1e1e1e"/><text font-family="Verdana" font-size="17" fill="white" x="880" y="415">   rule8</text><rect stroke="#44cf6e" stroke-width="4" x="860" y="360" width="107" height="50" rx="8" ry="8" fill="#1e1e1e"/><text font-family="Verdana" font-size="17" fill="white" x="880" y="390">   rule7</text><rect stroke="#44cf6e" stroke-width="4" x="860" y="335" width="107" height="50" rx="8" ry="8" fill="#1e1e1e"/><text font-family="Verdana" font-size="17" fill="white" x="880" y="365">   rule6</text><rect stroke="#44cf6e" stroke-width="4" x="860" y="310" width="107" height="50" rx="8" ry="8" fill="#1e1e1e"/><text font-family="Verdana" font-size="17" fill="white" x="880" y="340">   rule5</text><rect stroke="#44cf6e" stroke-width="4" x="860" y="285" width="107" height="50" rx="8" ry="8" fill="#1e1e1e"/><text font-family="Verdana" font-size="17" fill="white" x="880" y="315">   rule4</text><rect stroke="#44cf6e" stroke-width="4" x="860" y="260" width="107" height="50" rx="8" ry="8" fill="#1e1e1e"/><text font-family="Verdana" font-size="17" fill="white" x="880" y="290">   rule3</text><rect stroke="#44cf6e" stroke-width="4" x="860" y="235" width="107" height="50" rx="8" ry="8" fill="#1e1e1e"/><text font-family="Verdana" font-size="17" fill="white" x="880" y="265">   rule2</text><rect stroke="#44cf6e" stroke-width="4" x="860" y="210" width="107" height="50" rx="8" ry="8" fill="#1e1e1e"/><text font-family="Verdana" font-size="17" fill="white" x="880" y="240">   rule1</text><rect stroke="#44cf6e" stroke-width="4" x="860" y="109" width="107" height="50" rx="8" ry="8" fill="#1e1e1e"/><text font-family="Verdana" font-size="17" fill="white" x="880" y="139">   rule9</text><rect stroke="#44cf6e" stroke-width="4" x="860" y="84" width="107" height="50" rx="8" ry="8" fill="#1e1e1e"/><text font-family="Verdana" font-size="17" fill="white" x="880" y="114">   rule8</text><rect stroke="#44cf6e" stroke-width="4" x="860" y="59" width="107" height="50" rx="8" ry="8" fill="#1e1e1e"/><text font-family="Verdana" font-size="17" fill="white" x="880" y="89">   rule7</text><rect stroke="#44cf6e" stroke-width="4" x="860" y="34" width="107" height="50" rx="8" ry="8" fill="#1e1e1e"/><text font-family="Verdana" font-size="17" fill="white" x="880" y="64">   rule6</text><rect stroke="#44cf6e" stroke-width="4" x="860" y="9" width="107" height="50" rx="8" ry="8" fill="#1e1e1e"/><text font-family="Verdana" font-size="17" fill="white" x="880" y="39">   rule5</text><rect stroke="#44cf6e" stroke-width="4" x="860" y="-16" width="107" height="50" rx="8" ry="8" fill="#1e1e1e"/><text font-family="Verdana" font-size="17" fill="white" x="880" y="14">   rule4</text><rect stroke="#44cf6e" stroke-width="4" x="860" y="-41" width="107" height="50" rx="8" ry="8" fill="#1e1e1e"/><text font-family="Verdana" font-size="17" fill="white" x="880" y="-11">   rule3</text><rect stroke="#44cf6e" stroke-width="4" x="860" y="-66" width="107" height="50" rx="8" ry="8" fill="#1e1e1e"/><text font-family="Verdana" font-size="17" fill="white" x="880" y="-36">   rule2</text><rect stroke="#44cf6e" stroke-width="4" x="860" y="-91" width="107" height="50" rx="8" ry="8" fill="#1e1e1e"/><text font-family="Verdana" font-size="17" fill="white" x="880" y="-61">   rule1</text><rect stroke="#44cf6e" stroke-width="4" x="860" y="-180" width="107" height="50" rx="8" ry="8" fill="#1e1e1e"/><text font-family="Verdana" font-size="17" fill="white" x="880" y="-150">   rule9</text><rect stroke="#44cf6e" stroke-width="4" x="860" y="-205" width="107" height="50" rx="8" ry="8" fill="#1e1e1e"/><text font-family="Verdana" font-size="17" fill="white" x="880" y="-175">   rule8</text><rect stroke="#44cf6e" stroke-width="4" x="860" y="-230" width="107" height="50" rx="8" ry="8" fill="#1e1e1e"/><text font-family="Verdana" font-size="17" fill="white" x="880" y="-200">   rule7</text><rect stroke="#44cf6e" stroke-width="4" x="860" y="-255" width="107" height="50" rx="8" ry="8" fill="#1e1e1e"/><text font-family="Verdana" font-size="17" fill="white" x="880" y="-225">   rule6</text><rect stroke="#44cf6e" stroke-width="4" x="860" y="-280" width="107" height="50" rx="8" ry="8" fill="#1e1e1e"/><text font-family="Verdana" font-size="17" fill="white" x="880" y="-250">   rule5</text><rect stroke="#44cf6e" stroke-width="4" x="860" y="-305" width="107" height="50" rx="8" ry="8" fill="#1e1e1e"/><text font-family="Verdana" font-size="17" fill="white" x="880" y="-275">   rule4</text><rect stroke="#44cf6e" stroke-width="4" x="860" y="-330" width="107" height="50" rx="8" ry="8" fill="#1e1e1e"/><text font-family="Verdana" font-size="17" fill="white" x="880" y="-300">   rule3</text><rect stroke="#44cf6e" stroke-width="4" x="860" y="-355" width="107" height="50" rx="8" ry="8" fill="#1e1e1e"/><text font-family="Verdana" font-size="17" fill="white" x="880" y="-325">   rule2</text><rect stroke="#44cf6e" stroke-width="4" x="860" y="-380" width="107" height="50" rx="8" ry="8" fill="#1e1e1e"/><text font-family="Verdana" font-size="17" fill="white" x="880" y="-350">   rule1</text></svg>