<svg xmlns="http://www.w3.org/2000/svg" viewBox="100 -100 1095 512"><defs ><marker id="arrow-0" viewBox="0 0 10 10" refX="2" refY="5" markerUnits="strokeWidth" markerWidth="4" markerHeight="4" orient="auto-start-reverse"><path d="M 0 0 L 10 5 L 0 10 z" fill="#7e7e7e"/></marker></defs><defs ><marker id="arrow-1" viewBox="0 0 10 10" refX="2" refY="5" markerUnits="strokeWidth" markerWidth="4" markerHeight="4" orient="auto-start-reverse"><path d="M 0 0 L 10 5 L 0 10 z" fill="#fb464c"/></marker></defs><defs ><marker id="arrow-2" viewBox="0 0 10 10" refX="2" refY="5" markerUnits="strokeWidth" markerWidth="4" markerHeight="4" orient="auto-start-reverse"><path d="M 0 0 L 10 5 L 0 10 z" fill="#e9973f"/></marker></defs><defs ><marker id="arrow-3" viewBox="0 0 10 10" refX="2" refY="5" markerUnits="strokeWidth" markerWidth="4" markerHeight="4" orient="auto-start-reverse"><path d="M 0 0 L 10 5 L 0 10 z" fill="#e0de71"/></marker></defs><defs ><marker id="arrow-4" viewBox="0 0 10 10" refX="2" refY="5" markerUnits="strokeWidth" markerWidth="4" markerHeight="4" orient="auto-start-reverse"><path d="M 0 0 L 10 5 L 0 10 z" fill="#44cf6e"/></marker></defs><defs ><marker id="arrow-5" viewBox="0 0 10 10" refX="2" refY="5" markerUnits="strokeWidth" markerWidth="4" markerHeight="4" orient="auto-start-reverse"><path d="M 0 0 L 10 5 L 0 10 z" fill="#53dfdd"/></marker></defs><defs ><marker id="arrow-6" viewBox="0 0 10 10" refX="2" refY="5" markerUnits="strokeWidth" markerWidth="4" markerHeight="4" orient="auto-start-reverse"><path d="M 0 0 L 10 5 L 0 10 z" fill="#a882ff"/></marker></defs><path stroke="#7e7e7e" stroke-width="4" d="M 255 156.0 c 100 0 62 -166.0 147 -166.0" marker-end="url(#arrow-0)" fill="transparent"/><path stroke="#7e7e7e" stroke-width="4" d="M 255 156.0 c 100 0 62 -55.0 147 -55.0" marker-end="url(#arrow-0)" fill="transparent"/><path stroke="#7e7e7e" stroke-width="4" d="M 255 156.0 c 100 0 62 56.0 147 56.0" marker-end="url(#arrow-0)" fill="transparent"/><path stroke="#7e7e7e" stroke-width="4" d="M 255 156.0 c 100 0 62 166.0 147 166.0" marker-end="url(#arrow-0)" fill="transparent"/><path stroke="#7e7e7e" stroke-width="4" d="M 612 -10.0 c 100 0 11 30.0 96 30.0" marker-end="url(#arrow-0)" fill="transparent"/><path stroke="#7e7e7e" stroke-width="4" d="M 612 -10.0 c 100 0 11 -60.0 96 -60.0" marker-end="url(#arrow-0)" fill="transparent"/><path stroke="#7e7e7e" stroke-width="4" d="M 612 322.0 c 100 0 11 -30.0 96 -30.0" marker-end="url(#arrow-0)" fill="transparent"/><path stroke="#7e7e7e" stroke-width="4" d="M 612 322.0 c 100 0 11 60.0 96 60.0" marker-end="url(#arrow-0)" fill="transparent"/><path stroke="#7e7e7e" stroke-width="4" d="M 612 101.0 c 100 0 11 0.0 96 0.0" marker-end="url(#arrow-0)" fill="transparent"/><path stroke="#7e7e7e" stroke-width="4" d="M 612 212.0 c 100 0 11 -1.0 96 -1.0" marker-end="url(#arrow-0)" fill="transparent"/><path stroke="#7e7e7e" stroke-width="4" d="M 972 20.0 c 100 0 -53 0.0 32 0.0" marker-end="url(#arrow-0)" fill="transparent"/><path stroke="#7e7e7e" stroke-width="4" d="M 972 101.0 c 100 0 -53 0.0 32 0.0" marker-end="url(#arrow-0)" fill="transparent"/><path stroke="#7e7e7e" stroke-width="4" d="M 972 292.0 c 100 0 -53 0.0 32 0.0" marker-end="url(#arrow-0)" fill="transparent"/><path stroke="#7e7e7e" stroke-width="4" d="M 972 -70.0 c 100 0 -53 0.0 32 0.0" marker-end="url(#arrow-0)" fill="transparent"/><path stroke="#7e7e7e" stroke-width="4" d="M 972 382.0 c 100 0 -53 0.0 32 0.0" marker-end="url(#arrow-0)" fill="transparent"/><path stroke="#7e7e7e" stroke-width="4" d="M 972 211.0 c 100 0 -53 0.0 32 0.0" marker-end="url(#arrow-0)" fill="transparent"/><rect stroke="#53dfdd" stroke-width="4" x="100" y="131" width="155" height="50" rx="8" ry="8" fill="#1e1e1e"/><text font-family="Verdana" font-size="17" fill="white" x="120" y="161">Sigma_Rule</text><rect stroke="#fb464c" stroke-width="4" x="417" y="-40" width="195" height="60" rx="8" ry="8" fill="#1e1e1e"/><text font-family="Verdana" font-size="17" fill="white" x="437" y="-10">Splunk</text><rect stroke="#fb464c" stroke-width="4" x="417" y="292" width="195" height="60" rx="8" ry="8" fill="#1e1e1e"/><text font-family="Verdana" font-size="17" fill="white" x="437" y="322">MS365Defender</text><rect stroke="#fb464c" stroke-width="4" x="417" y="71" width="195" height="60" rx="8" ry="8" fill="#1e1e1e"/><text font-family="Verdana" font-size="17" fill="white" x="437" y="101">Qradar</text><rect stroke="#fb464c" stroke-width="4" x="417" y="182" width="195" height="60" rx="8" ry="8" fill="#1e1e1e"/><text font-family="Verdana" font-size="17" fill="white" x="437" y="212">Elasticsearch</text><rect stroke="#e9973f" stroke-width="4" x="723" y="-10" width="249" height="60" rx="8" ry="8" fill="#1e1e1e"/><text font-family="Verdana" font-size="17" fill="white" x="743" y="20">company2_pipeline.yml</text><rect stroke="#e9973f" stroke-width="4" x="723" y="71" width="249" height="60" rx="8" ry="8" fill="#1e1e1e"/><text font-family="Verdana" font-size="17" fill="white" x="743" y="101">company1_pipeline.yml</text><rect stroke="#e9973f" stroke-width="4" x="723" y="262" width="249" height="60" rx="8" ry="8" fill="#1e1e1e"/><text font-family="Verdana" font-size="17" fill="white" x="743" y="292">company2_pipeline.yml</text><rect stroke="#e9973f" stroke-width="4" x="723" y="-100" width="249" height="60" rx="8" ry="8" fill="#1e1e1e"/><text font-family="Verdana" font-size="17" fill="white" x="743" y="-70">company1_pipeline.yml</text><rect stroke="#e9973f" stroke-width="4" x="723" y="352" width="249" height="60" rx="8" ry="8" fill="#1e1e1e"/><text font-family="Verdana" font-size="17" fill="white" x="743" y="382">company3_pipeline.yml</text><rect stroke="#e9973f" stroke-width="4" x="723" y="181" width="249" height="60" rx="8" ry="8" fill="#1e1e1e"/><text font-family="Verdana" font-size="17" fill="white" x="743" y="211">company3_pipeline.yml</text><rect stroke="#44cf6e" stroke-width="4" x="1019" y="-100" width="176" height="60" rx="8" ry="8" fill="#1e1e1e"/><text font-family="Verdana" font-size="17" fill="white" x="1039" y="-70">Search Query</text><rect stroke="#44cf6e" stroke-width="4" x="1019" y="-10" width="176" height="60" rx="8" ry="8" fill="#1e1e1e"/><text font-family="Verdana" font-size="17" fill="white" x="1039" y="20">Search Query</text><rect stroke="#44cf6e" stroke-width="4" x="1019" y="71" width="176" height="60" rx="8" ry="8" fill="#1e1e1e"/><text font-family="Verdana" font-size="17" fill="white" x="1039" y="101">Search Query</text><rect stroke="#44cf6e" stroke-width="4" x="1019" y="181" width="176" height="60" rx="8" ry="8" fill="#1e1e1e"/><text font-family="Verdana" font-size="17" fill="white" x="1039" y="211">Search Query</text><rect stroke="#44cf6e" stroke-width="4" x="1019" y="262" width="176" height="60" rx="8" ry="8" fill="#1e1e1e"/><text font-family="Verdana" font-size="17" fill="white" x="1039" y="292">Search Query</text><rect stroke="#44cf6e" stroke-width="4" x="1019" y="352" width="176" height="60" rx="8" ry="8" fill="#1e1e1e"/><text font-family="Verdana" font-size="17" fill="white" x="1039" y="382">Search Query</text></svg>